<svg width="20" height="15" viewBox="0 0 20 15" fill="none" xmlns="http://www.w3.org/2000/svg">
<path d="M1.69629 7.51867C1.63872 7.34594 1.63867 7.15895 1.69614 6.98619C2.85311 3.5081 6.13399 1 10.0007 1C13.8656 1 17.1452 3.50577 18.3036 6.98134C18.3612 7.15406 18.3612 7.34106 18.3038 7.51381C17.1468 10.9919 13.8659 13.5 9.99922 13.5C6.13433 13.5 2.8547 10.9942 1.69629 7.51867Z" stroke="#173D82" stroke-width="1.75" stroke-linecap="round" stroke-linejoin="round"/>
<path d="M12.5 7.25C12.5 8.63071 11.3807 9.75 10 9.75C8.61929 9.75 7.5 8.63071 7.5 7.25C7.5 5.86929 8.61929 4.75 10 4.75C11.3807 4.75 12.5 5.86929 12.5 7.25Z" stroke="#173D82" stroke-width="1.75" stroke-linecap="round" stroke-linejoin="round"/>
</svg>
