<svg width="10" height="14" viewBox="0 0 10 14" fill="none" xmlns="http://www.w3.org/2000/svg">
<path d="M9.25033 9.50001C9.25033 10.6556 8.84477 11.6389 8.03366 12.45C7.22255 13.2611 6.23921 13.6667 5.08366 13.6667C3.9281 13.6667 2.94477 13.2611 2.13366 12.45C1.32255 11.6389 0.916992 10.6556 0.916992 9.50001V3.33334C0.916992 2.50001 1.20866 1.79168 1.79199 1.20834C2.37533 0.62501 3.08366 0.333344 3.91699 0.333344C4.75033 0.333344 5.45866 0.62501 6.04199 1.20834C6.62533 1.79168 6.91699 2.50001 6.91699 3.33334V9.16668C6.91699 9.67779 6.73921 10.1111 6.38366 10.4667C6.0281 10.8222 5.59477 11 5.08366 11C4.57255 11 4.13921 10.8222 3.78366 10.4667C3.4281 10.1111 3.25033 9.67779 3.25033 9.16668V3.00001H4.58366V9.16668C4.58366 9.31112 4.63088 9.43056 4.72533 9.52501C4.81977 9.61945 4.93921 9.66668 5.08366 9.66668C5.2281 9.66668 5.34755 9.61945 5.44199 9.52501C5.53644 9.43056 5.58366 9.31112 5.58366 9.16668V3.33334C5.57255 2.86668 5.40866 2.47223 5.09199 2.15001C4.77533 1.82779 4.38366 1.66668 3.91699 1.66668C3.45033 1.66668 3.05588 1.82779 2.73366 2.15001C2.41144 2.47223 2.25033 2.86668 2.25033 3.33334V9.50001C2.23921 10.2889 2.51144 10.9583 3.06699 11.5083C3.62255 12.0583 4.29477 12.3333 5.08366 12.3333C5.86144 12.3333 6.52255 12.0583 7.06699 11.5083C7.61144 10.9583 7.89477 10.2889 7.91699 9.50001V3.00001H9.25033V9.50001Z" fill="#4C4C4D"/>
</svg>
