<svg width="14" height="18" viewBox="0 0 14 18" fill="none" xmlns="http://www.w3.org/2000/svg">
<path d="M2.00016 9.04167C2.00016 9.26389 2.01405 9.48264 2.04183 9.69792C2.06961 9.91319 2.11822 10.125 2.18766 10.3333C2.25711 10.5694 2.25016 10.7951 2.16683 11.0104C2.0835 11.2257 1.93766 11.3819 1.72933 11.4792C1.50711 11.5903 1.28836 11.6007 1.07308 11.5104C0.857802 11.4201 0.715441 11.2569 0.645996 11.0208C0.534885 10.7014 0.455024 10.375 0.406413 10.0417C0.357802 9.70833 0.333496 9.375 0.333496 9.04167C0.333496 7.18056 0.979329 5.59722 2.271 4.29167C3.56266 2.98611 5.13905 2.33333 7.00016 2.33333H7.146L6.396 1.58333C6.24322 1.43056 6.16683 1.23611 6.16683 1C6.16683 0.763889 6.24322 0.569444 6.396 0.416667C6.54877 0.263889 6.74322 0.1875 6.97933 0.1875C7.21544 0.1875 7.40988 0.263889 7.56266 0.416667L9.72933 2.58333C9.896 2.75 9.97933 2.94444 9.97933 3.16667C9.97933 3.38889 9.896 3.58333 9.72933 3.75L7.56266 5.91667C7.40988 6.06944 7.21544 6.14583 6.97933 6.14583C6.74322 6.14583 6.54877 6.06944 6.396 5.91667C6.24322 5.76389 6.16683 5.56944 6.16683 5.33333C6.16683 5.09722 6.24322 4.90278 6.396 4.75L7.146 4H7.00016C5.61127 4 4.43072 4.48958 3.4585 5.46875C2.48627 6.44792 2.00016 7.63889 2.00016 9.04167ZM12.0002 8.95833C12.0002 8.73611 11.9863 8.51736 11.9585 8.30208C11.9307 8.08681 11.8821 7.875 11.8127 7.66667C11.7432 7.43056 11.7502 7.20486 11.8335 6.98958C11.9168 6.77431 12.0627 6.61806 12.271 6.52083C12.4932 6.40972 12.712 6.39931 12.9272 6.48958C13.1425 6.57986 13.2849 6.74306 13.3543 6.97917C13.4654 7.29861 13.5453 7.625 13.5939 7.95833C13.6425 8.29167 13.6668 8.625 13.6668 8.95833C13.6668 10.8194 13.021 12.4028 11.7293 13.7083C10.4377 15.0139 8.86127 15.6667 7.00016 15.6667H6.85433L7.60433 16.4167C7.75711 16.5694 7.8335 16.7639 7.8335 17C7.8335 17.2361 7.75711 17.4306 7.60433 17.5833C7.45155 17.7361 7.25711 17.8125 7.021 17.8125C6.78488 17.8125 6.59044 17.7361 6.43766 17.5833L4.271 15.4167C4.10433 15.25 4.021 15.0556 4.021 14.8333C4.021 14.6111 4.10433 14.4167 4.271 14.25L6.43766 12.0833C6.59044 11.9306 6.78488 11.8542 7.021 11.8542C7.25711 11.8542 7.45155 11.9306 7.60433 12.0833C7.75711 12.2361 7.8335 12.4306 7.8335 12.6667C7.8335 12.9028 7.75711 13.0972 7.60433 13.25L6.85433 14H7.00016C8.38905 14 9.56961 13.5104 10.5418 12.5312C11.5141 11.5521 12.0002 10.3611 12.0002 8.95833Z" fill="#313A41"/>
</svg>
