<svg width="16" height="16" viewBox="0 0 16 16" fill="none" xmlns="http://www.w3.org/2000/svg">
<path d="M8 12.4C9 12.4 9.85 12.05 10.55 11.35C11.25 10.65 11.6 9.80005 11.6 8.80005C11.6 7.80005 11.25 6.95005 10.55 6.25005C9.85 5.55005 9 5.20005 8 5.20005C7 5.20005 6.15 5.55005 5.45 6.25005C4.75 6.95005 4.4 7.80005 4.4 8.80005C4.4 9.80005 4.75 10.65 5.45 11.35C6.15 12.05 7 12.4 8 12.4ZM8 10.8C7.44 10.8 6.96667 10.6067 6.58 10.22C6.19333 9.83338 6 9.36005 6 8.80005C6 8.24005 6.19333 7.76672 6.58 7.38005C6.96667 6.99338 7.44 6.80005 8 6.80005C8.56 6.80005 9.03333 6.99338 9.42 7.38005C9.80667 7.76672 10 8.24005 10 8.80005C10 9.36005 9.80667 9.83338 9.42 10.22C9.03333 10.6067 8.56 10.8 8 10.8ZM1.6 15.2C1.16 15.2 0.783333 15.0434 0.47 14.73C0.156667 14.4167 0 14.04 0 13.6V4.00005C0 3.56005 0.156667 3.18338 0.47 2.87005C0.783333 2.55672 1.16 2.40005 1.6 2.40005H4.12L5.6 0.800049H10.4L11.88 2.40005H14.4C14.84 2.40005 15.2167 2.55672 15.53 2.87005C15.8433 3.18338 16 3.56005 16 4.00005V13.6C16 14.04 15.8433 14.4167 15.53 14.73C15.2167 15.0434 14.84 15.2 14.4 15.2H1.6ZM1.6 13.6H14.4V4.00005H11.16L9.7 2.40005H6.3L4.84 4.00005H1.6V13.6Z" fill="#364047"/>
</svg>
