<svg width="18" height="15" viewBox="0 0 18 15" fill="none" xmlns="http://www.w3.org/2000/svg">
<path d="M1.99999 14.4026C1.52856 14.4026 1.12499 14.2347 0.789277 13.899C0.453563 13.5633 0.285706 13.1597 0.285706 12.6883V2.40258C0.285706 1.93115 0.453563 1.52758 0.789277 1.19186C1.12499 0.856151 1.52856 0.688293 1.99999 0.688293H7.14285L8.85713 2.40258H15.7143C16.1857 2.40258 16.5893 2.57044 16.925 2.90615C17.2607 3.24186 17.4286 3.64544 17.4286 4.11686V12.6883C17.4286 13.1597 17.2607 13.5633 16.925 13.899C16.5893 14.2347 16.1857 14.4026 15.7143 14.4026H1.99999ZM1.99999 12.6883H15.7143V4.11686H8.14999L6.43571 2.40258H1.99999V12.6883Z" fill="white"/>
</svg>
