<svg width="20" height="15" viewBox="0 0 20 15" fill="none" xmlns="http://www.w3.org/2000/svg">
<path d="M1.69654 7.51867C1.63897 7.34594 1.63891 7.15895 1.69638 6.98619C2.85335 3.5081 6.13423 1 10.0009 1C13.8658 1 17.1454 3.50577 18.3038 6.98134C18.3614 7.15406 18.3615 7.34106 18.304 7.51381C17.147 10.9919 13.8661 13.5 9.99946 13.5C6.13457 13.5 2.85494 10.9942 1.69654 7.51867Z" stroke="#173D82" stroke-width="1.75" stroke-linecap="round" stroke-linejoin="round"/>
<path d="M12.5002 7.25C12.5002 8.63071 11.381 9.75 10.0002 9.75C8.61953 9.75 7.50024 8.63071 7.50024 7.25C7.50024 5.86929 8.61953 4.75 10.0002 4.75C11.381 4.75 12.5002 5.86929 12.5002 7.25Z" stroke="#173D82" stroke-width="1.75" stroke-linecap="round" stroke-linejoin="round"/>
</svg>
