<svg width="15" height="18" viewBox="0 0 15 18" fill="none" xmlns="http://www.w3.org/2000/svg">
<path d="M3.85716 13.9286H10.7143V12.2143H3.85716V13.9286ZM3.85716 10.5H10.7143V8.78572H3.85716V10.5ZM2.14287 17.3572C1.67145 17.3572 1.26787 17.1893 0.93216 16.8536C0.596446 16.5179 0.428589 16.1143 0.428589 15.6429V1.92858C0.428589 1.45715 0.596446 1.05358 0.93216 0.717866C1.26787 0.382152 1.67145 0.214294 2.14287 0.214294H9.00002L14.1429 5.35715V15.6429C14.1429 16.1143 13.975 16.5179 13.6393 16.8536C13.3036 17.1893 12.9 17.3572 12.4286 17.3572H2.14287ZM8.14287 6.21429V1.92858H2.14287V15.6429H12.4286V6.21429H8.14287Z" fill="#E9F1FF"/>
</svg>
