<svg width="18" height="18" viewBox="0 0 18 18" fill="none" xmlns="http://www.w3.org/2000/svg">
<path d="M6.70833 17.3333L6.375 14.6667C6.19444 14.5972 6.02431 14.5139 5.86458 14.4167C5.70486 14.3194 5.54861 14.2153 5.39583 14.1042L2.91667 15.1458L0.625 11.1875L2.77083 9.5625C2.75694 9.46528 2.75 9.37153 2.75 9.28126V8.71875C2.75 8.62848 2.75694 8.53473 2.77083 8.4375L0.625 6.8125L2.91667 2.85417L5.39583 3.89584C5.54861 3.78473 5.70833 3.68056 5.875 3.58334C6.04167 3.48612 6.20833 3.40278 6.375 3.33334L6.70833 0.666672H11.2917L11.625 3.33334C11.8056 3.40278 11.9757 3.48612 12.1354 3.58334C12.2951 3.68056 12.4514 3.78473 12.6042 3.89584L15.0833 2.85417L17.375 6.8125L15.2292 8.4375C15.2431 8.53473 15.25 8.62848 15.25 8.71875V9.28126C15.25 9.37153 15.2361 9.46528 15.2083 9.5625L17.3542 11.1875L15.0625 15.1458L12.6042 14.1042C12.4514 14.2153 12.2917 14.3194 12.125 14.4167C11.9583 14.5139 11.7917 14.5972 11.625 14.6667L11.2917 17.3333H6.70833ZM8.16667 15.6667H9.8125L10.1042 13.4583C10.5347 13.3472 10.934 13.184 11.3021 12.9688C11.6701 12.7535 12.0069 12.4931 12.3125 12.1875L14.375 13.0417L15.1875 11.625L13.3958 10.2708C13.4653 10.0764 13.5139 9.87153 13.5417 9.65625C13.5694 9.44098 13.5833 9.22223 13.5833 9C13.5833 8.77778 13.5694 8.55903 13.5417 8.34376C13.5139 8.12848 13.4653 7.92362 13.3958 7.72917L15.1875 6.375L14.375 4.95834L12.3125 5.83334C12.0069 5.51389 11.6701 5.24653 11.3021 5.03126C10.934 4.81598 10.5347 4.65278 10.1042 4.54167L9.83333 2.33334H8.1875L7.89583 4.54167C7.46528 4.65278 7.06597 4.81598 6.69792 5.03126C6.32986 5.24653 5.99306 5.50695 5.6875 5.81251L3.625 4.95834L2.8125 6.375L4.60417 7.70834C4.53472 7.91667 4.48611 8.125 4.45833 8.33334C4.43056 8.54167 4.41667 8.76389 4.41667 9C4.41667 9.22223 4.43056 9.43751 4.45833 9.64584C4.48611 9.85417 4.53472 10.0625 4.60417 10.2708L2.8125 11.625L3.625 13.0417L5.6875 12.1667C5.99306 12.4861 6.32986 12.7535 6.69792 12.9688C7.06597 13.184 7.46528 13.3472 7.89583 13.4583L8.16667 15.6667ZM9.04167 11.9167C9.84722 11.9167 10.5347 11.6319 11.1042 11.0625C11.6736 10.4931 11.9583 9.80556 11.9583 9C11.9583 8.19445 11.6736 7.50695 11.1042 6.93751C10.5347 6.36806 9.84722 6.08334 9.04167 6.08334C8.22222 6.08334 7.53125 6.36806 6.96875 6.93751C6.40625 7.50695 6.125 8.19445 6.125 9C6.125 9.80556 6.40625 10.4931 6.96875 11.0625C7.53125 11.6319 8.22222 11.9167 9.04167 11.9167Z" fill="#E9F1FF"/>
</svg>
