<svg width="14" height="13" viewBox="0 0 14 13" fill="none" xmlns="http://www.w3.org/2000/svg">
<path fill-rule="evenodd" clip-rule="evenodd" d="M0.791707 3.93968C1.03453 4.16516 1.41417 4.1511 1.63965 3.90827L3.19998 2.22792L3.19998 9.1C3.19998 9.43137 3.46861 9.7 3.79998 9.7C4.13135 9.7 4.39998 9.43137 4.39998 9.1V2.22792L5.9603 3.90827C6.18578 4.1511 6.56542 4.16516 6.80825 3.93968C7.05107 3.71419 7.06514 3.33456 6.83965 3.09173L4.23965 0.291729C4.12613 0.169469 3.96682 0.0999999 3.79998 0.0999999C3.63314 0.0999999 3.47383 0.169469 3.3603 0.291729L0.760302 3.09173C0.53482 3.33456 0.548881 3.71419 0.791707 3.93968ZM7.19171 9.06032C6.94888 9.28581 6.93482 9.66544 7.1603 9.90827L9.7603 12.7083C9.87383 12.8305 10.0331 12.9 10.2 12.9C10.3668 12.9 10.5261 12.8305 10.6397 12.7083L13.2397 9.90827C13.4651 9.66544 13.4511 9.28581 13.2082 9.06032C12.9654 8.83484 12.5858 8.8489 12.3603 9.09173L10.8 10.7721V3.9C10.8 3.56863 10.5313 3.3 10.2 3.3C9.86861 3.3 9.59998 3.56863 9.59998 3.9V10.7721L8.03965 9.09173C7.81417 8.8489 7.43453 8.83484 7.19171 9.06032Z" fill="#4D535E"/>
</svg>
